<svg xmlns="http://www.w3.org/2000/svg" xmlns:xlink="http://www.w3.org/1999/xlink" version="1.1" class="marks" width="561" height="342" viewBox="0 0 561 342"><rect width="561" height="342" fill="white"/><g fill="none" stroke-miterlimit="10" transform="translate(53,5)"><g class="mark-group role-frame root" role="graphics-object" aria-roledescription="group mark container"><g transform="translate(0,0)"><path class="background" aria-hidden="true" d="M0.5,0.5h500v300h-500Z" stroke="#ddd"/><g><g class="mark-group role-axis" aria-hidden="true"><g transform="translate(0.5,300.5)"><path class="background" aria-hidden="true" d="M0,0h0v0h0Z" pointer-events="none"/><g><g class="mark-rule role-axis-grid" pointer-events="none"><line transform="translate(0,-300)" x2="0" y2="300" stroke="#ddd" stroke-width="1" opacity="1"/><line transform="translate(50,-300)" x2="0" y2="300" stroke="#ddd" stroke-width="1" opacity="1"/><line transform="translate(100,-300)" x2="0" y2="300" stroke="#ddd" stroke-width="1" opacity="1"/><line transform="translate(150,-300)" x2="0" y2="300" stroke="#ddd" stroke-width="1" opacity="1"/><line transform="translate(200,-300)" x2="0" y2="300" stroke="#ddd" stroke-width="1" opacity="1"/><line transform="translate(250,-300)" x2="0" y2="300" stroke="#ddd" stroke-width="1" opacity="1"/><line transform="translate(300,-300)" x2="0" y2="300" stroke="#ddd" stroke-width="1" opacity="1"/><line transform="translate(350,-300)" x2="0" y2="300" stroke="#ddd" stroke-width="1" opacity="1"/><line transform="translate(400,-300)" x2="0" y2="300" stroke="#ddd" stroke-width="1" opacity="1"/><line transform="translate(450,-300)" x2="0" y2="300" stroke="#ddd" stroke-width="1" opacity="1"/><line transform="translate(500,-300)" x2="0" y2="300" stroke="#ddd" stroke-width="1" opacity="1"/></g></g><path class="foreground" aria-hidden="true" d="" pointer-events="none" display="none"/></g></g><g class="mark-group role-axis" aria-hidden="true"><g transform="translate(0.5,0.5)"><path class="background" aria-hidden="true" d="M0,0h0v0h0Z" pointer-events="none"/><g><g class="mark-rule role-axis-grid" pointer-events="none"><line transform="translate(0,279)" x2="500" y2="0" stroke="#ddd" stroke-width="1" opacity="1"/><line transform="translate(0,225)" x2="500" y2="0" stroke="#ddd" stroke-width="1" opacity="1"/><line transform="translate(0,171)" x2="500" y2="0" stroke="#ddd" stroke-width="1" opacity="1"/><line transform="translate(0,118)" x2="500" y2="0" stroke="#ddd" stroke-width="1" opacity="1"/><line transform="translate(0,64)" x2="500" y2="0" stroke="#ddd" stroke-width="1" opacity="1"/><line transform="translate(0,11)" x2="500" y2="0" stroke="#ddd" stroke-width="1" opacity="1"/></g></g><path class="foreground" aria-hidden="true" d="" pointer-events="none" display="none"/></g></g><g class="mark-group role-axis" role="graphics-symbol" aria-roledescription="axis" aria-label="X-axis titled 'rate' for a linear scale with values from 0 to 100"><g transform="translate(0.5,300.5)"><path class="background" aria-hidden="true" d="M0,0h0v0h0Z" pointer-events="none"/><g><g class="mark-rule role-axis-tick" pointer-events="none"><line transform="translate(0,0)" x2="0" y2="5" stroke="#888" stroke-width="1" opacity="1"/><line transform="translate(50,0)" x2="0" y2="5" stroke="#888" stroke-width="1" opacity="1"/><line transform="translate(100,0)" x2="0" y2="5" stroke="#888" stroke-width="1" opacity="1"/><line transform="translate(150,0)" x2="0" y2="5" stroke="#888" stroke-width="1" opacity="1"/><line transform="translate(200,0)" x2="0" y2="5" stroke="#888" stroke-width="1" opacity="1"/><line transform="translate(250,0)" x2="0" y2="5" stroke="#888" stroke-width="1" opacity="1"/><line transform="translate(300,0)" x2="0" y2="5" stroke="#888" stroke-width="1" opacity="1"/><line transform="translate(350,0)" x2="0" y2="5" stroke="#888" stroke-width="1" opacity="1"/><line transform="translate(400,0)" x2="0" y2="5" stroke="#888" stroke-width="1" opacity="1"/><line transform="translate(450,0)" x2="0" y2="5" stroke="#888" stroke-width="1" opacity="1"/><line transform="translate(500,0)" x2="0" y2="5" stroke="#888" stroke-width="1" opacity="1"/></g><g class="mark-text role-axis-label" pointer-events="none"><text text-anchor="start" transform="translate(0,15)" font-family="sans-serif" font-size="10px" fill="#000" opacity="1">0</text><text text-anchor="middle" transform="translate(50,15)" font-family="sans-serif" font-size="10px" fill="#000" opacity="1">10</text><text text-anchor="middle" transform="translate(100,15)" font-family="sans-serif" font-size="10px" fill="#000" opacity="1">20</text><text text-anchor="middle" transform="translate(150,15)" font-family="sans-serif" font-size="10px" fill="#000" opacity="1">30</text><text text-anchor="middle" transform="translate(200,15)" font-family="sans-serif" font-size="10px" fill="#000" opacity="1">40</text><text text-anchor="middle" transform="translate(250,15)" font-family="sans-serif" font-size="10px" fill="#000" opacity="1">50</text><text text-anchor="middle" transform="translate(300,15)" font-family="sans-serif" font-size="10px" fill="#000" opacity="1">60</text><text text-anchor="middle" transform="translate(350,15)" font-family="sans-serif" font-size="10px" fill="#000" opacity="1">70</text><text text-anchor="middle" transform="translate(400,15)" font-family="sans-serif" font-size="10px" fill="#000" opacity="1">80</text><text text-anchor="middle" transform="translate(450,15)" font-family="sans-serif" font-size="10px" fill="#000" opacity="1">90</text><text text-anchor="end" transform="translate(500,15)" font-family="sans-serif" font-size="10px" fill="#000" opacity="1">100</text></g><g class="mark-rule role-axis-domain" pointer-events="none"><line transform="translate(0,0)" x2="500" y2="0" stroke="#888" stroke-width="1" opacity="1"/></g><g class="mark-text role-axis-title" pointer-events="none"><text text-anchor="middle" transform="translate(250,30)" font-family="sans-serif" font-size="11px" font-weight="bold" fill="#000" opacity="1">rate</text></g></g><path class="foreground" aria-hidden="true" d="" pointer-events="none" display="none"/></g></g><g class="mark-group role-axis" role="graphics-symbol" aria-roledescription="axis" aria-label="Y-axis titled 'auc_roc' for a linear scale with values from 0.728 to 0.756"><g transform="translate(0.5,0.5)"><path class="background" aria-hidden="true" d="M0,0h0v0h0Z" pointer-events="none"/><g><g class="mark-rule role-axis-tick" pointer-events="none"><line transform="translate(0,279)" x2="-5" y2="0" stroke="#888" stroke-width="1" opacity="1"/><line transform="translate(0,225)" x2="-5" y2="0" stroke="#888" stroke-width="1" opacity="1"/><line transform="translate(0,171)" x2="-5" y2="0" stroke="#888" stroke-width="1" opacity="1"/><line transform="translate(0,118)" x2="-5" y2="0" stroke="#888" stroke-width="1" opacity="1"/><line transform="translate(0,64)" x2="-5" y2="0" stroke="#888" stroke-width="1" opacity="1"/><line transform="translate(0,11)" x2="-5" y2="0" stroke="#888" stroke-width="1" opacity="1"/></g><g class="mark-text role-axis-label" pointer-events="none"><text text-anchor="end" transform="translate(-7,281.57142857142856)" font-family="sans-serif" font-size="10px" fill="#000" opacity="1">0.730</text><text text-anchor="end" transform="translate(-7,228)" font-family="sans-serif" font-size="10px" fill="#000" opacity="1">0.735</text><text text-anchor="end" transform="translate(-7,174.42857142857142)" font-family="sans-serif" font-size="10px" fill="#000" opacity="1">0.740</text><text text-anchor="end" transform="translate(-7,120.85714285714288)" font-family="sans-serif" font-size="10px" fill="#000" opacity="1">0.745</text><text text-anchor="end" transform="translate(-7,67.28571428571429)" font-family="sans-serif" font-size="10px" fill="#000" opacity="1">0.750</text><text text-anchor="end" transform="translate(-7,13.71428571428571)" font-family="sans-serif" font-size="10px" fill="#000" opacity="1">0.755</text></g><g class="mark-rule role-axis-domain" pointer-events="none"><line transform="translate(0,300)" x2="0" y2="-300" stroke="#888" stroke-width="1" opacity="1"/></g><g class="mark-text role-axis-title" pointer-events="none"><text text-anchor="middle" transform="translate(-36.0244140625,150) rotate(-90) translate(0,-2)" font-family="sans-serif" font-size="11px" font-weight="bold" fill="#000" opacity="1">auc_roc</text></g></g><path class="foreground" aria-hidden="true" d="" pointer-events="none" display="none"/></g></g><g class="mark-rule role-mark layer_0_marks" role="graphics-object" aria-roledescription="rule mark container"><line aria-label="rate: 10; auc_roc: 0.73586871574; upper_auc_roc: 0.751190488218; Mean of auc_roc: 0.743529601979; Mean + stdev of auc_roc: 0.751190488218; Mean - stdev of auc_roc: 0.73586871574" role="graphics-symbol" aria-roledescription="errorbar" transform="translate(50,215.69233135710454)" x2="0" y2="-164.1618479804928" stroke="black"/><line aria-label="rate: 20; auc_roc: 0.737578505791; upper_auc_roc: 0.754848356618; Mean of auc_roc: 0.746213431204; Mean + stdev of auc_roc: 0.754848356618; Mean - stdev of auc_roc: 0.737578505791" role="graphics-symbol" aria-roledescription="errorbar" transform="translate(100,197.37315224158925)" x2="0" y2="-185.03411600489812" stroke="black"/><line aria-label="rate: 30; auc_roc: 0.742007614028; upper_auc_roc: 0.753511558525; Mean of auc_roc: 0.747759586277; Mean + stdev of auc_roc: 0.753511558525; Mean - stdev of auc_roc: 0.742007614028" role="graphics-symbol" aria-roledescription="errorbar" transform="translate(150,149.91842112776038)" x2="0" y2="-123.2565481840506" stroke="black"/><line aria-label="rate: 40; auc_roc: 0.734232999722; upper_auc_roc: 0.74746845838; Mean of auc_roc: 0.740850729051; Mean + stdev of auc_roc: 0.74746845838; Mean - stdev of auc_roc: 0.734232999722" role="graphics-symbol" aria-roledescription="errorbar" transform="translate(200,233.2178601174404)" x2="0" y2="-141.80848562010235" stroke="black"/><line aria-label="rate: 50; auc_roc: 0.729269447185; upper_auc_roc: 0.737849519685; Mean of auc_roc: 0.733559483435; Mean + stdev of auc_roc: 0.737849519685; Mean - stdev of auc_roc: 0.729269447185" role="graphics-symbol" aria-roledescription="errorbar" transform="translate(250,286.3987801624975)" x2="0" y2="-91.92934821457152" stroke="black"/><line aria-label="rate: 60; auc_roc: 0.734592178482; upper_auc_roc: 0.744618579779; Mean of auc_roc: 0.73960537913; Mean + stdev of auc_roc: 0.744618579779; Mean - stdev of auc_roc: 0.734592178482" role="graphics-symbol" aria-roledescription="errorbar" transform="translate(300,229.36951626721083)" x2="0" y2="-107.42572818695973" stroke="black"/><line aria-label="rate: 70; auc_roc: 0.738469069316; upper_auc_roc: 0.754030929985; Mean of auc_roc: 0.74624999965; Mean + stdev of auc_roc: 0.754030929985; Mean - stdev of auc_roc: 0.738469069316" role="graphics-symbol" aria-roledescription="errorbar" transform="translate(350,187.83140019066875)" x2="0" y2="-166.7342214621026" stroke="black"/><line aria-label="rate: 80; auc_roc: 0.746827554872; upper_auc_roc: 0.755828871658; Mean of auc_roc: 0.751328213265; Mean + stdev of auc_roc: 0.755828871658; Mean - stdev of auc_roc: 0.746827554872" role="graphics-symbol" aria-roledescription="errorbar" transform="translate(400,98.27619779892429)" x2="0" y2="-96.44267984756044" stroke="black"/><line aria-label="rate: 90; auc_roc: 0.73993949158; upper_auc_roc: 0.753291451573; Mean of auc_roc: 0.746615471576; Mean + stdev of auc_roc: 0.753291451573; Mean - stdev of auc_roc: 0.73993949158" role="graphics-symbol" aria-roledescription="errorbar" transform="translate(450,172.07687593085942)" x2="0" y2="-143.05671420944714" stroke="black"/><line aria-label="rate: 100; auc_roc: 0.741404666474; upper_auc_roc: 0.741404666474; Mean of auc_roc: 0.741404666474; Mean + stdev of auc_roc: 0.741404666474; Mean - stdev of auc_roc: 0.741404666474" role="graphics-symbol" aria-roledescription="errorbar" transform="translate(500,156.3785734959945)" x2="0" y2="0" stroke="black"/></g><g class="mark-symbol role-mark layer_1_marks" role="graphics-object" aria-roledescription="symbol mark container"><path aria-label="rate: 10; Mean of auc_roc: 0.743529601979" role="graphics-symbol" aria-roledescription="point" transform="translate(50,133.61140736685812)" d="M2.739,0A2.739,2.739,0,1,1,-2.739,0A2.739,2.739,0,1,1,2.739,0" fill="black" stroke-width="2"/><path aria-label="rate: 20; Mean of auc_roc: 0.746213431204" role="graphics-symbol" aria-roledescription="point" transform="translate(100,104.8560942391402)" d="M2.739,0A2.739,2.739,0,1,1,-2.739,0A2.739,2.739,0,1,1,2.739,0" fill="black" stroke-width="2"/><path aria-label="rate: 30; Mean of auc_roc: 0.747759586277" role="graphics-symbol" aria-roledescription="point" transform="translate(150,88.29014703573509)" d="M2.739,0A2.739,2.739,0,1,1,-2.739,0A2.739,2.739,0,1,1,2.739,0" fill="black" stroke-width="2"/><path aria-label="rate: 40; Mean of auc_roc: 0.740850729051" role="graphics-symbol" aria-roledescription="point" transform="translate(200,162.31361730738922)" d="M2.739,0A2.739,2.739,0,1,1,-2.739,0A2.739,2.739,0,1,1,2.739,0" fill="black" stroke-width="2"/><path aria-label="rate: 50; Mean of auc_roc: 0.733559483435" role="graphics-symbol" aria-roledescription="point" transform="translate(250,240.4341060552117)" d="M2.739,0A2.739,2.739,0,1,1,-2.739,0A2.739,2.739,0,1,1,2.739,0" fill="black" stroke-width="2"/><path aria-label="rate: 60; Mean of auc_roc: 0.73960537913" role="graphics-symbol" aria-roledescription="point" transform="translate(300,175.65665217373098)" d="M2.739,0A2.739,2.739,0,1,1,-2.739,0A2.739,2.739,0,1,1,2.739,0" fill="black" stroke-width="2"/><path aria-label="rate: 70; Mean of auc_roc: 0.74624999965" role="graphics-symbol" aria-roledescription="point" transform="translate(350,104.46428945961742)" d="M2.739,0A2.739,2.739,0,1,1,-2.739,0A2.739,2.739,0,1,1,2.739,0" fill="black" stroke-width="2"/><path aria-label="rate: 80; Mean of auc_roc: 0.751328213265" role="graphics-symbol" aria-roledescription="point" transform="translate(400,50.054857875144066)" d="M2.739,0A2.739,2.739,0,1,1,-2.739,0A2.739,2.739,0,1,1,2.739,0" fill="black" stroke-width="2"/><path aria-label="rate: 90; Mean of auc_roc: 0.746615471576" role="graphics-symbol" aria-roledescription="point" transform="translate(450,100.54851882613582)" d="M2.739,0A2.739,2.739,0,1,1,-2.739,0A2.739,2.739,0,1,1,2.739,0" fill="black" stroke-width="2"/><path aria-label="rate: 100; Mean of auc_roc: 0.741404666474" role="graphics-symbol" aria-roledescription="point" transform="translate(500,156.3785734959945)" d="M2.739,0A2.739,2.739,0,1,1,-2.739,0A2.739,2.739,0,1,1,2.739,0" fill="black" stroke-width="2"/></g></g><path class="foreground" aria-hidden="true" d="" display="none"/></g></g></g></svg>