<svg xmlns="http://www.w3.org/2000/svg" xmlns:xlink="http://www.w3.org/1999/xlink" version="1.1" class="marks" width="555" height="347" viewBox="0 0 555 347"><rect width="555" height="347" fill="white"/><g fill="none" stroke-miterlimit="10" transform="translate(47,10)"><g class="mark-group role-frame root" role="graphics-object" aria-roledescription="group mark container"><g transform="translate(0,0)"><path class="background" aria-hidden="true" d="M0.5,0.5h500v300h-500Z" stroke="#ddd"/><g><g class="mark-group role-axis" aria-hidden="true"><g transform="translate(0.5,300.5)"><path class="background" aria-hidden="true" d="M0,0h0v0h0Z" pointer-events="none"/><g><g class="mark-rule role-axis-grid" pointer-events="none"><line transform="translate(0,-300)" x2="0" y2="300" stroke="#ddd" stroke-width="1" opacity="1"/><line transform="translate(50,-300)" x2="0" y2="300" stroke="#ddd" stroke-width="1" opacity="1"/><line transform="translate(100,-300)" x2="0" y2="300" stroke="#ddd" stroke-width="1" opacity="1"/><line transform="translate(150,-300)" x2="0" y2="300" stroke="#ddd" stroke-width="1" opacity="1"/><line transform="translate(200,-300)" x2="0" y2="300" stroke="#ddd" stroke-width="1" opacity="1"/><line transform="translate(250,-300)" x2="0" y2="300" stroke="#ddd" stroke-width="1" opacity="1"/><line transform="translate(300,-300)" x2="0" y2="300" stroke="#ddd" stroke-width="1" opacity="1"/><line transform="translate(350,-300)" x2="0" y2="300" stroke="#ddd" stroke-width="1" opacity="1"/><line transform="translate(400,-300)" x2="0" y2="300" stroke="#ddd" stroke-width="1" opacity="1"/><line transform="translate(450,-300)" x2="0" y2="300" stroke="#ddd" stroke-width="1" opacity="1"/><line transform="translate(500,-300)" x2="0" y2="300" stroke="#ddd" stroke-width="1" opacity="1"/></g></g><path class="foreground" aria-hidden="true" d="" pointer-events="none" display="none"/></g></g><g class="mark-group role-axis" aria-hidden="true"><g transform="translate(0.5,0.5)"><path class="background" aria-hidden="true" d="M0,0h0v0h0Z" pointer-events="none"/><g><g class="mark-rule role-axis-grid" pointer-events="none"><line transform="translate(0,300)" x2="500" y2="0" stroke="#ddd" stroke-width="1" opacity="1"/><line transform="translate(0,270)" x2="500" y2="0" stroke="#ddd" stroke-width="1" opacity="1"/><line transform="translate(0,240)" x2="500" y2="0" stroke="#ddd" stroke-width="1" opacity="1"/><line transform="translate(0,210)" x2="500" y2="0" stroke="#ddd" stroke-width="1" opacity="1"/><line transform="translate(0,180)" x2="500" y2="0" stroke="#ddd" stroke-width="1" opacity="1"/><line transform="translate(0,150)" x2="500" y2="0" stroke="#ddd" stroke-width="1" opacity="1"/><line transform="translate(0,120)" x2="500" y2="0" stroke="#ddd" stroke-width="1" opacity="1"/><line transform="translate(0,90)" x2="500" y2="0" stroke="#ddd" stroke-width="1" opacity="1"/><line transform="translate(0,60)" x2="500" y2="0" stroke="#ddd" stroke-width="1" opacity="1"/><line transform="translate(0,30)" x2="500" y2="0" stroke="#ddd" stroke-width="1" opacity="1"/><line transform="translate(0,0)" x2="500" y2="0" stroke="#ddd" stroke-width="1" opacity="1"/></g></g><path class="foreground" aria-hidden="true" d="" pointer-events="none" display="none"/></g></g><g class="mark-group role-axis" role="graphics-symbol" aria-roledescription="axis" aria-label="X-axis titled 'rate' for a linear scale with values from 0 to 100"><g transform="translate(0.5,300.5)"><path class="background" aria-hidden="true" d="M0,0h0v0h0Z" pointer-events="none"/><g><g class="mark-rule role-axis-tick" pointer-events="none"><line transform="translate(0,0)" x2="0" y2="5" stroke="#888" stroke-width="1" opacity="1"/><line transform="translate(50,0)" x2="0" y2="5" stroke="#888" stroke-width="1" opacity="1"/><line transform="translate(100,0)" x2="0" y2="5" stroke="#888" stroke-width="1" opacity="1"/><line transform="translate(150,0)" x2="0" y2="5" stroke="#888" stroke-width="1" opacity="1"/><line transform="translate(200,0)" x2="0" y2="5" stroke="#888" stroke-width="1" opacity="1"/><line transform="translate(250,0)" x2="0" y2="5" stroke="#888" stroke-width="1" opacity="1"/><line transform="translate(300,0)" x2="0" y2="5" stroke="#888" stroke-width="1" opacity="1"/><line transform="translate(350,0)" x2="0" y2="5" stroke="#888" stroke-width="1" opacity="1"/><line transform="translate(400,0)" x2="0" y2="5" stroke="#888" stroke-width="1" opacity="1"/><line transform="translate(450,0)" x2="0" y2="5" stroke="#888" stroke-width="1" opacity="1"/><line transform="translate(500,0)" x2="0" y2="5" stroke="#888" stroke-width="1" opacity="1"/></g><g class="mark-text role-axis-label" pointer-events="none"><text text-anchor="start" transform="translate(0,15)" font-family="sans-serif" font-size="10px" fill="#000" opacity="1">0</text><text text-anchor="middle" transform="translate(50,15)" font-family="sans-serif" font-size="10px" fill="#000" opacity="1">10</text><text text-anchor="middle" transform="translate(100,15)" font-family="sans-serif" font-size="10px" fill="#000" opacity="1">20</text><text text-anchor="middle" transform="translate(150,15)" font-family="sans-serif" font-size="10px" fill="#000" opacity="1">30</text><text text-anchor="middle" transform="translate(200,15)" font-family="sans-serif" font-size="10px" fill="#000" opacity="1">40</text><text text-anchor="middle" transform="translate(250,15)" font-family="sans-serif" font-size="10px" fill="#000" opacity="1">50</text><text text-anchor="middle" transform="translate(300,15)" font-family="sans-serif" font-size="10px" fill="#000" opacity="1">60</text><text text-anchor="middle" transform="translate(350,15)" font-family="sans-serif" font-size="10px" fill="#000" opacity="1">70</text><text text-anchor="middle" transform="translate(400,15)" font-family="sans-serif" font-size="10px" fill="#000" opacity="1">80</text><text text-anchor="middle" transform="translate(450,15)" font-family="sans-serif" font-size="10px" fill="#000" opacity="1">90</text><text text-anchor="end" transform="translate(500,15)" font-family="sans-serif" font-size="10px" fill="#000" opacity="1">100</text></g><g class="mark-rule role-axis-domain" pointer-events="none"><line transform="translate(0,0)" x2="500" y2="0" stroke="#888" stroke-width="1" opacity="1"/></g><g class="mark-text role-axis-title" pointer-events="none"><text text-anchor="middle" transform="translate(250,30)" font-family="sans-serif" font-size="11px" font-weight="bold" fill="#000" opacity="1">rate</text></g></g><path class="foreground" aria-hidden="true" d="" pointer-events="none" display="none"/></g></g><g class="mark-group role-axis" role="graphics-symbol" aria-roledescription="axis" aria-label="Y-axis titled 'auc_roc' for a linear scale with values from 0.58 to 0.78"><g transform="translate(0.5,0.5)"><path class="background" aria-hidden="true" d="M0,0h0v0h0Z" pointer-events="none"/><g><g class="mark-rule role-axis-tick" pointer-events="none"><line transform="translate(0,300)" x2="-5" y2="0" stroke="#888" stroke-width="1" opacity="1"/><line transform="translate(0,270)" x2="-5" y2="0" stroke="#888" stroke-width="1" opacity="1"/><line transform="translate(0,240)" x2="-5" y2="0" stroke="#888" stroke-width="1" opacity="1"/><line transform="translate(0,210)" x2="-5" y2="0" stroke="#888" stroke-width="1" opacity="1"/><line transform="translate(0,180)" x2="-5" y2="0" stroke="#888" stroke-width="1" opacity="1"/><line transform="translate(0,150)" x2="-5" y2="0" stroke="#888" stroke-width="1" opacity="1"/><line transform="translate(0,120)" x2="-5" y2="0" stroke="#888" stroke-width="1" opacity="1"/><line transform="translate(0,90)" x2="-5" y2="0" stroke="#888" stroke-width="1" opacity="1"/><line transform="translate(0,60)" x2="-5" y2="0" stroke="#888" stroke-width="1" opacity="1"/><line transform="translate(0,30)" x2="-5" y2="0" stroke="#888" stroke-width="1" opacity="1"/><line transform="translate(0,0)" x2="-5" y2="0" stroke="#888" stroke-width="1" opacity="1"/></g><g class="mark-text role-axis-label" pointer-events="none"><text text-anchor="end" transform="translate(-7,303)" font-family="sans-serif" font-size="10px" fill="#000" opacity="1">0.58</text><text text-anchor="end" transform="translate(-7,273)" font-family="sans-serif" font-size="10px" fill="#000" opacity="1">0.60</text><text text-anchor="end" transform="translate(-7,242.99999999999994)" font-family="sans-serif" font-size="10px" fill="#000" opacity="1">0.62</text><text text-anchor="end" transform="translate(-7,212.99999999999994)" font-family="sans-serif" font-size="10px" fill="#000" opacity="1">0.64</text><text text-anchor="end" transform="translate(-7,182.99999999999991)" font-family="sans-serif" font-size="10px" fill="#000" opacity="1">0.66</text><text text-anchor="end" transform="translate(-7,152.99999999999994)" font-family="sans-serif" font-size="10px" fill="#000" opacity="1">0.68</text><text text-anchor="end" transform="translate(-7,123.00000000000007)" font-family="sans-serif" font-size="10px" fill="#000" opacity="1">0.70</text><text text-anchor="end" transform="translate(-7,93.00000000000004)" font-family="sans-serif" font-size="10px" fill="#000" opacity="1">0.72</text><text text-anchor="end" transform="translate(-7,63.00000000000002)" font-family="sans-serif" font-size="10px" fill="#000" opacity="1">0.74</text><text text-anchor="end" transform="translate(-7,33.00000000000003)" font-family="sans-serif" font-size="10px" fill="#000" opacity="1">0.76</text><text text-anchor="end" transform="translate(-7,3)" font-family="sans-serif" font-size="10px" fill="#000" opacity="1">0.78</text></g><g class="mark-rule role-axis-domain" pointer-events="none"><line transform="translate(0,300)" x2="0" y2="-300" stroke="#888" stroke-width="1" opacity="1"/></g><g class="mark-text role-axis-title" pointer-events="none"><text text-anchor="middle" transform="translate(-30.462890625,150) rotate(-90) translate(0,-2)" font-family="sans-serif" font-size="11px" font-weight="bold" fill="#000" opacity="1">auc_roc</text></g></g><path class="foreground" aria-hidden="true" d="" pointer-events="none" display="none"/></g></g><g class="mark-rule role-mark layer_0_marks" role="graphics-object" aria-roledescription="rule mark container"><line aria-label="rate: 10; auc_roc: 0.587482324704; upper_auc_roc: 0.606937675296; Mean of auc_roc: 0.59721; Mean + stdev of auc_roc: 0.606937675296; Mean - stdev of auc_roc: 0.587482324704" role="graphics-symbol" aria-roledescription="errorbar" transform="translate(50,288.77651294417416)" x2="0" y2="-29.18302588834814" stroke="black"/><line aria-label="rate: 20; auc_roc: 0.678237866568; upper_auc_roc: 0.708702133432; Mean of auc_roc: 0.69347; Mean + stdev of auc_roc: 0.708702133432; Mean - stdev of auc_roc: 0.678237866568" role="graphics-symbol" aria-roledescription="errorbar" transform="translate(100,152.6432001479329)" x2="0" y2="-45.69640029586587" stroke="black"/><line aria-label="rate: 30; auc_roc: 0.722734626688; upper_auc_roc: 0.750705373312; Mean of auc_roc: 0.73672; Mean + stdev of auc_roc: 0.750705373312; Mean - stdev of auc_roc: 0.722734626688" role="graphics-symbol" aria-roledescription="errorbar" transform="translate(150,85.89805996749935)" x2="0" y2="-41.95611993499878" stroke="black"/><line aria-label="rate: 40; auc_roc: 0.733007265604; upper_auc_roc: 0.757772734396; Mean of auc_roc: 0.74539; Mean + stdev of auc_roc: 0.757772734396; Mean - stdev of auc_roc: 0.733007265604" role="graphics-symbol" aria-roledescription="errorbar" transform="translate(200,70.48910159334773)" x2="0" y2="-37.1482031866954" stroke="black"/><line aria-label="rate: 50; auc_roc: 0.738415977465; upper_auc_roc: 0.760584022535; Mean of auc_roc: 0.7495; Mean + stdev of auc_roc: 0.760584022535; Mean - stdev of auc_roc: 0.738415977465" role="graphics-symbol" aria-roledescription="errorbar" transform="translate(250,62.37603380244357)" x2="0" y2="-33.252067604887266" stroke="black"/><line aria-label="rate: 60; auc_roc: 0.739593664798; upper_auc_roc: 0.753806335202; Mean of auc_roc: 0.7467; Mean + stdev of auc_roc: 0.753806335202; Mean - stdev of auc_roc: 0.739593664798" role="graphics-symbol" aria-roledescription="errorbar" transform="translate(300,60.60950280266405)" x2="0" y2="-21.319005605327817" stroke="black"/><line aria-label="rate: 70; auc_roc: 0.728052740183; upper_auc_roc: 0.743807259817; Mean of auc_roc: 0.73593; Mean + stdev of auc_roc: 0.743807259817; Mean - stdev of auc_roc: 0.728052740183" role="graphics-symbol" aria-roledescription="errorbar" transform="translate(350,77.92088972528096)" x2="0" y2="-23.631779450561822" stroke="black"/><line aria-label="rate: 80; auc_roc: 0.716988719385; upper_auc_roc: 0.735991280615; Mean of auc_roc: 0.72649; Mean + stdev of auc_roc: 0.735991280615; Mean - stdev of auc_roc: 0.716988719385" role="graphics-symbol" aria-roledescription="errorbar" transform="translate(400,94.51692092315969)" x2="0" y2="-28.503841846319602" stroke="black"/><line aria-label="rate: 90; auc_roc: 0.71753058977; upper_auc_roc: 0.73052941023; Mean of auc_roc: 0.72403; Mean + stdev of auc_roc: 0.73052941023; Mean - stdev of auc_roc: 0.71753058977" role="graphics-symbol" aria-roledescription="errorbar" transform="translate(450,93.70411534448134)" x2="0" y2="-19.498230688962508" stroke="black"/><line aria-label="rate: 100; auc_roc: 0.7127; upper_auc_roc: 0.7127; Mean of auc_roc: 0.7127; Mean + stdev of auc_roc: 0.7127; Mean - stdev of auc_roc: 0.7127" role="graphics-symbol" aria-roledescription="errorbar" transform="translate(500,100.95)" x2="0" y2="0" stroke="black"/></g><g class="mark-symbol role-mark layer_1_marks" role="graphics-object" aria-roledescription="symbol mark container"><path aria-label="rate: 10; Mean of auc_roc: 0.59721" role="graphics-symbol" aria-roledescription="point" transform="translate(50,274.18500000000006)" d="M2.739,0A2.739,2.739,0,1,1,-2.739,0A2.739,2.739,0,1,1,2.739,0" fill="black" stroke-width="2"/><path aria-label="rate: 20; Mean of auc_roc: 0.69347" role="graphics-symbol" aria-roledescription="point" transform="translate(100,129.79499999999996)" d="M2.739,0A2.739,2.739,0,1,1,-2.739,0A2.739,2.739,0,1,1,2.739,0" fill="black" stroke-width="2"/><path aria-label="rate: 30; Mean of auc_roc: 0.73672" role="graphics-symbol" aria-roledescription="point" transform="translate(150,64.91999999999994)" d="M2.739,0A2.739,2.739,0,1,1,-2.739,0A2.739,2.739,0,1,1,2.739,0" fill="black" stroke-width="2"/><path aria-label="rate: 40; Mean of auc_roc: 0.74539" role="graphics-symbol" aria-roledescription="point" transform="translate(200,51.91500000000001)" d="M2.739,0A2.739,2.739,0,1,1,-2.739,0A2.739,2.739,0,1,1,2.739,0" fill="black" stroke-width="2"/><path aria-label="rate: 50; Mean of auc_roc: 0.7495" role="graphics-symbol" aria-roledescription="point" transform="translate(250,45.74999999999996)" d="M2.739,0A2.739,2.739,0,1,1,-2.739,0A2.739,2.739,0,1,1,2.739,0" fill="black" stroke-width="2"/><path aria-label="rate: 60; Mean of auc_roc: 0.7467" role="graphics-symbol" aria-roledescription="point" transform="translate(300,49.95000000000016)" d="M2.739,0A2.739,2.739,0,1,1,-2.739,0A2.739,2.739,0,1,1,2.739,0" fill="black" stroke-width="2"/><path aria-label="rate: 70; Mean of auc_roc: 0.73593" role="graphics-symbol" aria-roledescription="point" transform="translate(350,66.10500000000005)" d="M2.739,0A2.739,2.739,0,1,1,-2.739,0A2.739,2.739,0,1,1,2.739,0" fill="black" stroke-width="2"/><path aria-label="rate: 80; Mean of auc_roc: 0.72649" role="graphics-symbol" aria-roledescription="point" transform="translate(400,80.26499999999989)" d="M2.739,0A2.739,2.739,0,1,1,-2.739,0A2.739,2.739,0,1,1,2.739,0" fill="black" stroke-width="2"/><path aria-label="rate: 90; Mean of auc_roc: 0.72403" role="graphics-symbol" aria-roledescription="point" transform="translate(450,83.95500000000008)" d="M2.739,0A2.739,2.739,0,1,1,-2.739,0A2.739,2.739,0,1,1,2.739,0" fill="black" stroke-width="2"/><path aria-label="rate: 100; Mean of auc_roc: 0.7127" role="graphics-symbol" aria-roledescription="point" transform="translate(500,100.95)" d="M2.739,0A2.739,2.739,0,1,1,-2.739,0A2.739,2.739,0,1,1,2.739,0" fill="black" stroke-width="2"/></g></g><path class="foreground" aria-hidden="true" d="" display="none"/></g></g></g></svg>